<svg width="512" height="512" viewBox="0 0 512 512" fill="none" xmlns="http://www.w3.org/2000/svg" xmlns:xlink="http://www.w3.org/1999/xlink" class=""><rect id="r9" width="512" height="512" x="0" y="0" rx="1250" fill="url(#ra)" stroke="#FFFFFF" stroke-width="0" stroke-opacity="100%" paint-order="stroke"></rect><rect width="512" height="512" x="0" y="0" fill="url(#rb)" rx="1250" style="mix-blend-mode: overlay;"></rect><clipPath id="clip"><use xlink:href="#r9"></use></clipPath><defs><linearGradient id="ra" gradientUnits="userSpaceOnUse" gradientTransform="rotate(45)" style="transform-origin: center center;"><stop stop-color="#DD1818"></stop><stop offset="1" stop-color="#8A0202"></stop></linearGradient><radialGradient id="rb" cx="0" cy="0" r="1" gradientUnits="userSpaceOnUse" gradientTransform="translate(256) rotate(90) scale(512)"><stop stop-color="white"></stop><stop offset="1" stop-color="white" stop-opacity="0"></stop></radialGradient></defs><svg xmlns="http://www.w3.org/2000/svg" fill="none" viewBox="0 0 16 16" width="350" height="350" x="81" y="81" alignment-baseline="middle" style="color: rgb(255, 255, 255);"><path fill="currentColor" d="M3.084 11.888a.734.734 0 0 0 .006 1.022.74.74 0 0 0 1.022.006l3.885-3.89 3.891 3.89a.734.734 0 0 0 1.022-.006c.273-.286.28-.75 0-1.022L9.025 7.997l3.885-3.885a.728.728 0 0 0 0-1.022c-.285-.273-.749-.28-1.022-.006l-3.89 3.89-3.886-3.89c-.266-.267-.749-.28-1.022.006a.74.74 0 0 0-.006 1.022l3.891 3.885-3.89 3.89Z"></path></svg></svg>