<svg xmlns="http://www.w3.org/2000/svg" enable-background="new 0 0 512 512" viewBox="0 0 512 512" id="agriculture">
  <linearGradient id="a" x1="85.724" x2="587.148" y1="-81.683" y2="419.741" gradientUnits="userSpaceOnUse">
    <stop offset="0" stop-color="#03a9f4"></stop>
    <stop offset="1" stop-color="#962cb3"></stop>
  </linearGradient>
  <path fill="url(#a)" d="M512,38.753c0-17.92-14.58-32.5-32.5-32.5H112.164c-4.142,0-7.5,3.358-7.5,7.5
			s3.358,7.5,7.5,7.5h311.822v271.959c-2.621-1.042-5.456-1.669-8.436-1.775c-3.994-0.144-7.872,0.627-11.396,2.218v-51.375
			c0-11.437-7.577-21.136-17.974-24.346V87.612c0-4.142-3.358-7.5-7.5-7.5c-4.142,0-7.5,3.358-7.5,7.5v130.323
			c-10.397,3.21-17.974,12.909-17.974,24.346v91.168l-10.496,2.771c-7.075,1.867-12.327,7.754-13.379,14.997l-2.686,18.504h-90.692
			c-4.142,0-7.5,3.358-7.5,7.5c0,4.142,3.358,7.5,7.5,7.5h88.515l-3.215,22.15c-1.451,10.002,3.165,19.898,11.761,25.213
			l32.776,20.267v35.897c0,9.649,7.851,17.5,17.5,17.5h83.269c9.649,0,17.5-7.85,17.5-17.5l0-32.625l15.305-10.76
			C507.277,439.3,512,430.207,512,420.537V38.753z M479.5,21.253c9.649,0,17.5,7.851,17.5,17.5v269.219
			c-3.198-1.449-6.742-2.262-10.474-2.262c-2.836,0-5.641,0.472-8.342,1.405c-2.254,0.781-4.346,1.859-6.238,3.18
			c-4.365-6.827-11.82-11.406-20.446-11.713c-4.419-0.157-8.693,0.819-12.513,2.777V21.253H479.5z M368.206,242.28
			c0-5.775,4.699-10.474,10.474-10.474c5.775,0,10.474,4.699,10.474,10.474v74.614c0,4.142,3.358,7.5,7.5,7.5
			c4.142,0,7.5-3.358,7.5-7.5c0-2.868,1.137-5.545,3.202-7.538c2.063-1.992,4.774-3.03,7.662-2.93
			c3.907,0.139,7.294,2.598,8.969,6.061v1.838c0,1.44,0.413,2.781,1.117,3.923v5.79c0,4.142,3.358,7.5,7.5,7.5
			c4.142,0,7.5-3.358,7.5-7.5c0-2.868,1.137-5.546,3.202-7.538c2.064-1.992,4.78-3.024,7.662-2.93
			c5.561,0.198,10.085,5.087,10.085,10.898v6.713c0,4.142,3.358,7.5,7.5,7.5c4.142,0,7.5-3.358,7.5-7.5
			c0-4.46,2.831-8.436,7.037-9.894c1.1-0.38,2.288-0.581,3.438-0.581c5.775,0,10.474,4.699,10.474,10.474v89.352
			c0,4.792-2.341,9.299-6.261,12.055l-16.367,11.506c-3.326,2.338-5.311,6.161-5.311,10.226l0,33.923c0,1.378-1.122,2.5-2.5,2.5
			h-83.269c-1.378,0-2.5-1.122-2.5-2.5v-37.291c0-4.363-2.215-8.337-5.926-10.631l-33.961-20.999
			c-3.512-2.171-5.397-6.215-4.805-10.301l8.078-55.654c0.185-1.28,1.113-2.319,2.362-2.649l6.668-1.76v41.075
			c0,4.142,3.358,7.5,7.5,7.5c4.142,0,7.5-3.358,7.5-7.5V242.28z"></path>
  <linearGradient id="b" x1="138.274" x2="639.695" y1="-134.233" y2="367.188" gradientUnits="userSpaceOnUse">
    <stop offset="0" stop-color="#03a9f4"></stop>
    <stop offset="1" stop-color="#962cb3"></stop>
  </linearGradient>
  <path fill="url(#b)" d="M467.993,234.426c4.142,0,7.5-3.358,7.5-7.5v-62.878c0-4.142-3.358-7.5-7.5-7.5
			c-4.142,0-7.5,3.358-7.5,7.5v62.878C460.493,231.068,463.851,234.426,467.993,234.426z"></path>
  <linearGradient id="c" x1="6.926" x2="508.348" y1="-2.884" y2="498.538" gradientUnits="userSpaceOnUse">
    <stop offset="0" stop-color="#03a9f4"></stop>
    <stop offset="1" stop-color="#962cb3"></stop>
  </linearGradient>
  <path fill="url(#c)" d="M236.922,274.818c17.803,0,35.066-7.041,47.842-19.886
			c6.65-6.686,11.713-14.582,15.033-23.125h14.279c9.649,0,17.5-7.85,17.5-17.5V104.16c9.734-3.168,16.791-12.324,16.791-23.101
			c0-13.394-10.897-24.291-24.291-24.291c-13.394,0-24.291,10.897-24.291,24.291c0,10.777,7.057,19.933,16.791,23.101v110.146
			c0,1.379-1.122,2.5-2.5,2.5h-10.358c1.02-7.208,0.886-14.624-0.498-21.975c-1.099-5.836-5.763-10.474-11.604-11.539
			c-21.893-3.999-44.322,3.023-59.997,18.784c-1.673,1.682-3.24,3.445-4.71,5.271l-0.027-12.869c0.322-0.186,0.637-0.386,0.946-0.6
			c18.309-12.654,29.203-33.479,29.142-55.707c-0.061-22.227-11.068-42.992-29.445-55.546c-4.903-3.351-11.481-3.333-16.367,0.044
			c-16.203,11.199-26.592,28.799-28.727,48.105h-69.018c-1.378,0-2.5-1.122-2.5-2.5V104.16c9.734-3.168,16.791-12.324,16.791-23.101
			c0-13.394-10.897-24.291-24.291-24.291c-13.395,0-24.291,10.897-24.291,24.291c0,10.777,7.057,19.933,16.791,23.101v24.113
			c0,9.649,7.851,17.5,17.5,17.5h69.038c2.19,19.374,12.69,37,29.01,48.149c0.137,0.094,0.28,0.175,0.42,0.263l0.027,12.949
			c-1.421-1.751-2.932-3.442-4.541-5.06c-15.674-15.76-38.104-22.783-59.997-18.784c-5.842,1.066-10.505,5.704-11.605,11.54
			c-4.117,21.872,2.782,44.339,18.457,60.099c1.778,1.788,3.652,3.451,5.593,5.011v26.866c0,1.378-1.122,2.5-2.5,2.5H96.514
			c-3.168-9.734-12.324-16.791-23.101-16.791c-13.395,0-24.292,10.897-24.292,24.291c0,13.394,10.897,24.291,24.292,24.291
			c10.777,0,19.932-7.057,23.101-16.791h60.802c9.649,0,17.5-7.851,17.5-17.5v-17.755c8.542,3.769,17.815,5.764,27.249,5.764
			c3.317,0,6.654-0.259,9.984-0.756l0.061,29.315c0.009,4.137,3.365,7.484,7.499,7.484c0.005,0,0.011,0,0.016,0
			c4.142-0.009,7.493-3.374,7.484-7.516l-0.061-29.266C230.342,274.565,233.641,274.818,236.922,274.818z M324.075,71.769
			c5.123,0,9.291,4.168,9.291,9.291c0,5.123-4.168,9.291-9.291,9.291c-5.123,0-9.291-4.168-9.291-9.291
			C314.784,75.937,318.952,71.769,324.075,71.769z M103.413,71.769c5.123,0,9.291,4.168,9.291,9.291
			c0,5.123-4.168,9.291-9.291,9.291c-5.123,0-9.292-4.168-9.292-9.291C94.122,75.937,98.29,71.769,103.413,71.769z M73.413,306.1
			c-5.123,0-9.291-4.168-9.291-9.291c0-5.123,4.168-9.291,9.291-9.291c5.123,0,9.291,4.168,9.291,9.291
			C82.704,301.932,78.536,306.1,73.413,306.1z M242.254,212.654c12.1-12.166,29.377-17.636,46.293-14.673
			c3.055,16.897-2.32,34.207-14.42,46.372c-12.1,12.167-29.383,17.636-46.293,14.673c-0.565-3.125-0.838-6.264-0.837-9.382
			l-0.001-0.223C227.059,235.759,232.446,222.516,242.254,212.654z M197.017,138.335c-0.047-17.159,8.304-33.245,22.359-43.109
			c14.108,9.788,22.548,25.828,22.594,42.987c0.047,17.159-8.305,33.246-22.359,43.109
			C205.502,171.534,197.063,155.493,197.017,138.335z M211.152,259.027c-16.913,2.964-34.193-2.506-46.293-14.673
			c-12.101-12.167-17.476-29.476-14.42-46.372c16.91-2.962,34.193,2.506,46.293,14.673
			C208.832,224.82,214.207,242.13,211.152,259.027z"></path>
  <linearGradient id="d" x1="-5.89" x2="495.532" y1="9.932" y2="511.355" gradientUnits="userSpaceOnUse">
    <stop offset="0" stop-color="#03a9f4"></stop>
    <stop offset="1" stop-color="#962cb3"></stop>
  </linearGradient>
  <path fill="url(#d)" d="M312.324,295.861h-49.571c-4.142,0-7.5,3.358-7.5,7.5c0,4.142,3.358,7.5,7.5,7.5h49.571
			c4.142,0,7.5-3.358,7.5-7.5C319.824,299.219,316.466,295.861,312.324,295.861z"></path>
  <linearGradient id="e" x1="-20.092" x2="481.331" y1="24.133" y2="525.556" gradientUnits="userSpaceOnUse">
    <stop offset="0" stop-color="#03a9f4"></stop>
    <stop offset="1" stop-color="#962cb3"></stop>
  </linearGradient>
  <path fill="url(#e)" d="M312.324,324.263h-49.571c-4.142,0-7.5,3.358-7.5,7.5s3.358,7.5,7.5,7.5h49.571
			c4.142,0,7.5-3.358,7.5-7.5S316.466,324.263,312.324,324.263z"></path>
  <linearGradient id="f" x1="-70.312" x2="431.109" y1="74.353" y2="575.774" gradientUnits="userSpaceOnUse">
    <stop offset="0" stop-color="#03a9f4"></stop>
    <stop offset="1" stop-color="#962cb3"></stop>
  </linearGradient>
  <path fill="url(#f)" d="M203.267,369.72H32.5c-9.649,0-17.5-7.851-17.5-17.5V38.753c0-9.649,7.851-17.5,17.5-17.5
			h46.977c4.142,0,7.5-3.358,7.5-7.5s-3.358-7.5-7.5-7.5H32.5c-17.92,0-32.5,14.58-32.5,32.5V352.22c0,17.92,14.58,32.5,32.5,32.5
			h170.767c4.142,0,7.5-3.358,7.5-7.5C210.767,373.078,207.409,369.72,203.267,369.72z"></path>
</svg>
