<svg xmlns="http://www.w3.org/2000/svg" viewBox="0 0 24 24" id="align-right">
  <defs>
    <linearGradient id="a" x1="5.72" x2="20.28" y1="18.28" y2="3.72" gradientUnits="userSpaceOnUse">
      <stop offset="0" stop-color="#339"></stop>
      <stop offset=".1" stop-color="#3c319b"></stop>
      <stop offset=".26" stop-color="#542ba1"></stop>
      <stop offset=".47" stop-color="#7c21ab"></stop>
      <stop offset=".7" stop-color="#b313b9"></stop>
      <stop offset=".97" stop-color="#f902ca"></stop>
      <stop offset=".99" stop-color="#f0c"></stop>
    </linearGradient>
  </defs>
  <g>
    <path fill="url(#a)" d="M3.25,4.5A.76.76,0,0,1,4,3.75H20a.75.75,0,0,1,0,1.5H4A.76.76,0,0,1,3.25,4.5ZM20,8.75H8a.75.75,0,0,0,0,1.5H20a.75.75,0,0,0,0-1.5Zm0,5H4a.75.75,0,0,0,0,1.5H20a.75.75,0,0,0,0-1.5Zm0,5H8a.75.75,0,0,0,0,1.5H20a.75.75,0,0,0,0-1.5Z"></path>
  </g>
</svg>
