<svg xmlns="http://www.w3.org/2000/svg" enable-background="new 0 0 48 48" viewBox="0 0 48 48" id="books">
  <linearGradient id="a" x1=".353" x2="40.816" y1="46.008" y2="5.544" gradientUnits="userSpaceOnUse">
    <stop offset="0" stop-color="#be53ff"></stop>
    <stop offset="1" stop-color="#6be2dd"></stop>
  </linearGradient>
  <path fill="url(#a)" d="M15.5,25.7H5c-0.6,0-1-0.4-1-1V5c0-0.6,0.4-1,1-1h10.5c0.6,0,1,0.4,1,1v19.7C16.5,25.3,16,25.7,15.5,25.7z M6,23.7h8.5V6H6V23.7z M15.5,44H5c-0.6,0-1-0.4-1-1v-8.1c0-0.6,0.4-1,1-1h10.5c0.6,0,1,0.4,1,1V43C16.5,43.6,16,44,15.5,44z M6,42h8.5v-6.1H6V42z M47.9,39.7L37.5,3c-0.6-2.1-2.7-3.3-4.8-2.7L21.3,3.5c-0.3,0.1-0.6,0.2-0.8,0.4c-0.1-2.1-1.8-3.9-4-3.9H4C1.8,0,0,1.8,0,4v40c0,2.2,1.8,4,4,4h12.5c2.2,0,4-1.8,4-4V14.9L28.9,45c0.5,1.7,2,2.8,3.7,2.8c0.3,0,0.7,0,1-0.1l11.5-3.2c1-0.3,1.8-0.9,2.3-1.8C48,41.8,48.1,40.7,47.9,39.7z M18.5,44c0,1.1-0.9,2-2,2H4c-1.1,0-2-0.9-2-2V4c0-1.1,0.9-2,2-2h12.5c1.1,0,2,0.9,2,2V44z M45.8,41.7c-0.2,0.4-0.6,0.7-1.1,0.9l-11.5,3.2c-1,0.3-2-0.3-2.3-1.3L20.6,7.7c-0.1-0.5-0.1-1,0.2-1.4s0.6-0.7,1.1-0.9l11.5-3.2c0.2,0,0.3-0.1,0.5-0.1c0.8,0,1.6,0.5,1.8,1.4l10.3,36.8C46.1,40.8,46,41.3,45.8,41.7z M28.6,27c-0.2,0-0.3,0-0.5-0.1c-0.2-0.1-0.4-0.3-0.5-0.6L22.6,8.2c-0.1-0.5,0.2-1.1,0.7-1.2l9.6-2.7c0.3-0.1,0.5,0,0.8,0.1c0.2,0.1,0.4,0.3,0.5,0.6L39.2,23c0.1,0.5-0.2,1.1-0.7,1.2L28.9,27C28.8,27,28.7,27,28.6,27z M24.8,8.6l4.5,16.2l7.7-2.2L32.5,6.4L24.8,8.6z M33.3,43.8c-0.4,0-0.8-0.3-1-0.7l-2.1-7.4c-0.1-0.5,0.2-1.1,0.7-1.2l9.6-2.7c0.3-0.1,0.5,0,0.8,0.1c0.2,0.1,0.4,0.3,0.5,0.6l2.1,7.4c0.1,0.3,0,0.5-0.1,0.8c-0.1,0.2-0.3,0.4-0.6,0.5l-9.6,2.7C33.5,43.8,33.4,43.8,33.3,43.8z M32.5,36.1l1.5,5.5l7.7-2.2l-1.5-5.5L32.5,36.1z"></path>
</svg>
