<svg xmlns="http://www.w3.org/2000/svg" enable-background="new 0 0 2000 2000" viewBox="0 0 2000 2000" id="calendar-zoom">
  <linearGradient id="a" x1="502.493" x2="1408.754" y1="932.492" y2="951.275" gradientUnits="userSpaceOnUse">
    <stop offset="0" stop-color="#604cf9"></stop>
    <stop offset=".405" stop-color="#ca8bf6"></stop>
    <stop offset="1" stop-color="#ffd9ff"></stop>
  </linearGradient>
  <path fill="url(#a)" d="M1095.86,891.74c-3.8-2.88-8.81-3.81-13.38-2.52c-23.49,6.63-42.89,17.27-57.65,31.62
		c-15.64,15.2-26.64,35.05-32.69,58.99c-1.17,4.61-0.16,9.4,2.76,13.15c2.92,3.75,7.32,5.9,12.07,5.9l71.47-0.01
		c12.95,0,23.49-10.53,23.49-23.49v-71.45C1101.93,899.18,1099.66,894.62,1095.86,891.74z"></path>
  <linearGradient id="b" x1="502.661" x2="1408.922" y1="924.399" y2="943.181" gradientUnits="userSpaceOnUse">
    <stop offset="0" stop-color="#604cf9"></stop>
    <stop offset=".405" stop-color="#ca8bf6"></stop>
    <stop offset="1" stop-color="#ffd9ff"></stop>
  </linearGradient>
  <path fill="url(#b)" d="M1256.74,879.67h-72.25c-12.95,0-23.49,10.53-23.49,23.49v72.25c0,12.95,10.53,23.49,23.49,23.49
		h72.25c12.95,0,23.49-10.53,23.49-23.49v-72.25C1280.22,890.2,1269.69,879.67,1256.74,879.67z"></path>
  <linearGradient id="c" x1="499.062" x2="1405.323" y1="1098.059" y2="1116.842" gradientUnits="userSpaceOnUse">
    <stop offset="0" stop-color="#604cf9"></stop>
    <stop offset=".405" stop-color="#ca8bf6"></stop>
    <stop offset="1" stop-color="#ffd9ff"></stop>
  </linearGradient>
  <path fill="url(#c)" d="M1256.74,1053.4h-72.25c-12.95,0-23.49,10.53-23.49,23.49v72.25c0,12.95,10.53,23.49,23.49,23.49
		h72.25c12.95,0,23.49-10.53,23.49-23.49v-72.25C1280.22,1063.94,1269.69,1053.4,1256.74,1053.4z"></path>
  <linearGradient id="d" x1="498.954" x2="1405.215" y1="1103.276" y2="1122.058" gradientUnits="userSpaceOnUse">
    <stop offset="0" stop-color="#604cf9"></stop>
    <stop offset=".405" stop-color="#ca8bf6"></stop>
    <stop offset="1" stop-color="#ffd9ff"></stop>
  </linearGradient>
  <path fill="url(#d)" d="M1078.44,1054.93h-72.25c-12.95,0-23.49,10.53-23.49,23.49v72.25c0,12.95,10.53,23.49,23.49,23.49
		h72.25c12.95,0,23.49-10.53,23.49-23.49v-72.25C1101.93,1065.46,1091.4,1054.93,1078.44,1054.93z"></path>
  <linearGradient id="e" x1="503.014" x2="1409.275" y1="954.602" y2="973.385" gradientUnits="userSpaceOnUse">
    <stop offset="0" stop-color="#604cf9"></stop>
    <stop offset=".405" stop-color="#ca8bf6"></stop>
    <stop offset="1" stop-color="#ffd9ff"></stop>
  </linearGradient>
  <path fill="url(#e)" d="M1474.46,1311.99l-89.19-89.19c11.54-16.01,21.26-33.25,29.01-51.59
		c13.81-32.67,20.82-67.36,20.82-103.12c0-35.76-7-70.45-20.82-103.12c-13.34-31.55-32.44-59.87-56.76-84.2
		c-8.42-8.42-17.32-16.22-26.67-23.36v-49.59c0-0.02,0-0.05,0-0.07V662.79c0-45.84-37.3-83.14-83.14-83.14h-86.26v-31.08
		c0-8.11-6.58-14.69-14.69-14.69s-14.69,6.58-14.69,14.69v31.08H707.86v-31.08c0-8.11-6.58-14.69-14.69-14.69
		c-8.11,0-14.69,6.58-14.69,14.69v31.08h-86.27c-45.84,0-83.14,37.3-83.14,83.14v518.88c0,45.84,37.3,83.14,83.14,83.14h286.61v0
		h113.93c22.01,19.89,46.95,35.8,74.31,47.37c32.67,13.81,67.37,20.82,103.12,20.82c35.76,0,70.46-7.01,103.13-20.82
		c9.75-4.12,19.19-8.8,28.3-14.01l93.33,93.33c10.62,10.61,24.74,16.46,39.75,16.46s29.13-5.85,39.76-16.47
		c10.61-10.62,16.46-24.74,16.46-39.75C1490.92,1336.73,1485.07,1322.61,1474.46,1311.99z M538.45,725.75v-62.96
		c0-29.65,24.12-53.77,53.77-53.77h86.27v31.08c0,8.11,6.58,14.69,14.69,14.69c8.11,0,14.69-6.58,14.69-14.69v-31.08h424.21v31.08
		c0,8.11,6.58,14.69,14.69,14.69s14.69-6.58,14.69-14.69v-31.08h86.26c29.65,0,53.77,24.12,53.77,53.77v62.96H538.45z M1003,862.59
		c-6.98,5.69-13.7,11.75-20.13,18.18c-1.92,1.92-3.8,3.88-5.66,5.86v-24.04H1003z M713.81,1104.22c0,12.95-10.53,23.49-23.49,23.49
		h-72.25c-12.95,0-23.49-10.53-23.49-23.49v-72.25c0-12.95,10.53-23.49,23.49-23.49h72.25c12.95,0,23.49,10.53,23.49,23.49V1104.22z
		 M713.81,928.96c0,12.94-10.53,23.49-23.49,23.49h-72.25c-12.95,0-23.49-10.53-23.49-23.49v-72.25c0-12.95,10.53-23.49,23.49-23.49
		h72.25c12.95,0,23.49,10.53,23.49,23.49V928.96z M892.11,1105.74c0,12.95-10.53,23.49-23.49,23.49h-72.25
		c-12.95,0-23.49-10.53-23.49-23.49v-72.25c0-12.95,10.53-23.49,23.49-23.49h72.25c12.95,0,23.49,10.53,23.49,23.49V1105.74z
		 M892.11,930.48c0,12.94-10.53,23.49-23.49,23.49h-72.25c-12.95,0-23.49-10.53-23.49-23.49v-72.25c0-12.95,10.53-23.49,23.49-23.49
		h72.25c12.95,0,23.49,10.53,23.49,23.49V930.48z M1170.19,1303.62c-47.21,0-92.3-13.8-130.67-39.49
		c-12.46-8.33-24.2-17.92-35.07-28.7c-0.27-0.26-0.54-0.53-0.81-0.8c-44.48-44.48-68.98-103.63-68.98-166.54
		c0-46.41,13.35-90.77,38.2-128.71c1.37-1.35,2.47-2.98,3.22-4.79c8.09-11.71,17.29-22.78,27.56-33.05
		c44.49-44.49,103.64-68.99,166.55-68.99c47.47,0,92.79,13.95,131.29,39.9c10.31,6.95,20.13,14.76,29.37,23.4
		c1.99,1.86,3.95,3.75,5.89,5.69c44.49,44.48,68.99,103.63,68.99,166.55c0,62.91-24.5,122.06-68.99,166.54
		C1292.26,1279.12,1233.11,1303.62,1170.19,1303.62z M1453.68,1370.72c-5.06,5.07-11.81,7.86-18.98,7.86
		c-7.17,0-13.91-2.79-18.98-7.86l-85.84-85.84l37.97-37.96l85.83,85.83c5.07,5.07,7.87,11.81,7.87,18.98
		C1461.55,1358.91,1458.75,1365.65,1453.68,1370.72z"></path>
</svg>
