<svg xmlns="http://www.w3.org/2000/svg" xml:space="preserve" viewBox="0 0 64 64" id="computer-error">
  <linearGradient id="a" x1="8.271" x2="12.605" y1="29.445" y2="29.445" gradientUnits="userSpaceOnUse">
    <stop offset="0" stop-color="#7b47d7"></stop>
    <stop offset="1" stop-color="#5282e6"></stop>
  </linearGradient>
  <path d="M12.11 25.5a.49.49 0 0 0 0-.98H8.77a.49.49 0 0 0-.49.49v8.87c0 .27.22.49.49.49h3.35a.49.49 0 0 0 0-.98H9.26v-3.45h2.85a.49.49 0 0 0 0-.98H9.26V25.5z" fill="url(#a)"></path>
  <linearGradient id="b" x1="15.389" x2="21.202" y1="29.448" y2="29.448" gradientUnits="userSpaceOnUse">
    <stop offset="0" stop-color="#7b47d7"></stop>
    <stop offset="1" stop-color="#5282e6"></stop>
  </linearGradient>
  <path d="M18.32 29.94a2.714 2.714 0 0 0 2.69-2.71c0-1.49-1.22-2.71-2.71-2.71h-2.42a.49.49 0 0 0-.49.49v8.86a.49.49 0 0 0 .98 0v-3.94h.7l3.24 4.24c.1.13.24.19.39.19.1 0 .21-.03.3-.1.22-.17.26-.48.09-.69zm-1.94-4.43h1.92a1.72 1.72 0 1 1 0 3.44h-1.92z" fill="url(#b)"></path>
  <linearGradient id="c" x1="23.558" x2="29.371" y1="29.448" y2="29.448" gradientUnits="userSpaceOnUse">
    <stop offset="0" stop-color="#7b47d7"></stop>
    <stop offset="1" stop-color="#5282e6"></stop>
  </linearGradient>
  <path d="M26.49 29.94a2.714 2.714 0 0 0 2.69-2.71c0-1.49-1.22-2.71-2.71-2.71h-2.41a.49.49 0 0 0-.49.49v8.86a.49.49 0 0 0 .98 0v-3.94h.7l3.24 4.24c.1.13.24.19.39.19.1 0 .21-.03.3-.1.22-.17.26-.48.09-.69zm-1.94-4.43h1.92a1.72 1.72 0 1 1 0 3.44h-1.92z" fill="url(#c)"></path>
  <linearGradient id="d" x1="43.553" x2="49.365" y1="29.448" y2="29.448" gradientUnits="userSpaceOnUse">
    <stop offset="0" stop-color="#7b47d7"></stop>
    <stop offset="1" stop-color="#5282e6"></stop>
  </linearGradient>
  <path d="M46.48 29.94a2.714 2.714 0 0 0 2.69-2.71c0-1.49-1.22-2.71-2.71-2.71h-2.41a.49.49 0 0 0-.49.49v8.86a.49.49 0 0 0 .98 0v-3.94h.7l3.24 4.24c.1.13.24.19.39.19.1 0 .21-.03.3-.1.22-.17.26-.48.09-.69zm-1.94-4.43h1.92a1.72 1.72 0 1 1 0 3.44h-1.92z" fill="url(#d)"></path>
  <linearGradient id="e" x1="31.458" x2="41.31" y1="29.448" y2="29.448" gradientUnits="userSpaceOnUse">
    <stop offset="0" stop-color="#7b47d7"></stop>
    <stop offset="1" stop-color="#5282e6"></stop>
  </linearGradient>
  <path d="M36.38 24.52c-2.72 0-4.93 2.21-4.93 4.93s2.21 4.93 4.93 4.93 4.93-2.21 4.93-4.93-2.21-4.93-4.93-4.93m0 8.86c-2.17 0-3.94-1.77-3.94-3.94s1.77-3.94 3.94-3.94 3.94 1.77 3.94 3.94-1.76 3.94-3.94 3.94" fill="url(#e)"></path>
  <linearGradient id="f" x1="26.137" x2="31.498" y1="47.323" y2="47.323" gradientUnits="userSpaceOnUse">
    <stop offset="0" stop-color="#7b47d7"></stop>
    <stop offset="1" stop-color="#5282e6"></stop>
  </linearGradient>
  <path d="M31 46.83h-4.37a.49.49 0 0 0 0 .98H31a.49.49 0 0 0 0-.98" fill="url(#f)"></path>
  <linearGradient id="g" x1="0" x2="64" y1="32" y2="32" gradientUnits="userSpaceOnUse">
    <stop offset="0" stop-color="#7b47d7"></stop>
    <stop offset="1" stop-color="#5282e6"></stop>
  </linearGradient>
  <path d="m63.45 14.08-4.88-8.45a3.98 3.98 0 0 0-3.48-2.01c-1.45 0-2.75.75-3.48 2.01l-2.9 5.02H2.5a2.5 2.5 0 0 0-2.5 2.5V49a2.5 2.5 0 0 0 2.5 2.5h20.24c.01 1.43-.03 5.78-.85 7.87h-3.44a.49.49 0 0 0 0 .98h20.74a.49.49 0 0 0 0-.98h-3.44c-.82-2.09-.86-6.44-.85-7.87h20.24a2.5 2.5 0 0 0 2.5-2.5V20.1h2.34c1.45 0 2.75-.75 3.48-2.01.72-1.25.72-2.75-.01-4.01M2.5 11.65h45.64l-1.41 2.44c-.14.25-.25.5-.33.76H4.83c-.74 0-1.32.58-1.32 1.32v26.89H.99v-29.9c0-.83.68-1.51 1.51-1.51m2 31.4V16.16c0-.19.14-.33.33-.33H46.2c-.05.78.12 1.56.53 2.27a3.98 3.98 0 0 0 3.48 2.01h2.92v22.94zm30.2 16.33H22.94c.77-2.37.81-6.45.79-7.87H33.9c-.01 1.42.03 5.5.8 7.87m20.43-8.86H2.5c-.84 0-1.52-.68-1.52-1.51v-4.97h55.66v4.97c.01.84-.67 1.51-1.51 1.51m1.52-7.47h-2.53V20.11h2.53zm5.95-25.44c-.55.95-1.53 1.52-2.62 1.52h-9.74c-1.1 0-2.08-.57-2.62-1.52-.55-.95-.55-2.08 0-3.03l4.88-8.45c.55-.95 1.53-1.51 2.62-1.51 1.1 0 2.08.57 2.62 1.51l4.88 8.45c.53.95.53 2.08-.02 3.03" fill="url(#g)"></path>
  <linearGradient id="h" x1="54.6" x2="55.589" y1="9.32" y2="9.32" gradientUnits="userSpaceOnUse">
    <stop offset="0" stop-color="#7b47d7"></stop>
    <stop offset="1" stop-color="#5282e6"></stop>
  </linearGradient>
  <path d="M55.09 6.26a.49.49 0 0 0-.49.49v5.13a.49.49 0 0 0 .98 0V6.75a.48.48 0 0 0-.49-.49" fill="url(#h)"></path>
  <linearGradient id="i" x1="54.6" x2="55.589" y1="15.123" y2="15.123" gradientUnits="userSpaceOnUse">
    <stop offset="0" stop-color="#7b47d7"></stop>
    <stop offset="1" stop-color="#5282e6"></stop>
  </linearGradient>
  <path d="M55.09 14.01a.49.49 0 0 0-.49.49v1.24a.49.49 0 0 0 .98 0V14.5a.48.48 0 0 0-.49-.49" fill="url(#i)"></path>
</svg>
