<svg xmlns="http://www.w3.org/2000/svg" xmlns:xlink="http://www.w3.org/1999/xlink" width="32" height="32" viewBox="0 0 32 32" id="home">
  <defs>
    <linearGradient id="a">
      <stop offset="0" stop-color="#f0f"></stop>
      <stop offset="1" stop-color="#00f"></stop>
    </linearGradient>
    <linearGradient xlink:href="#a" id="f" x1="2.05" x2="29.95" y1="2.047" y2="29.947" gradientUnits="userSpaceOnUse"></linearGradient>
    <linearGradient xlink:href="#a" id="b" x1="2.05" x2="29.95" y1="2.047" y2="29.947" gradientUnits="userSpaceOnUse"></linearGradient>
    <linearGradient xlink:href="#a" id="c" x1="2.05" x2="29.95" y1="2.047" y2="29.947" gradientUnits="userSpaceOnUse"></linearGradient>
    <linearGradient xlink:href="#a" id="d" x1="2.05" x2="29.95" y1="2.047" y2="29.947" gradientUnits="userSpaceOnUse"></linearGradient>
    <linearGradient xlink:href="#a" id="e" x1="2.05" x2="29.95" y1="2.047" y2="29.947" gradientUnits="userSpaceOnUse"></linearGradient>
  </defs>
  <g transform="translate(0 .003)">
    <path fill="url(#b)" d="m 16,1.9941406 c -0.99643,0 -1.99206,0.3404876 -2.79687,1.0214844 L 3.88086,10.904297 C 2.68848,11.913231 2,13.397027 2,14.958984 V 25 c 0,2.749579 2.25042,5 5,5 h 18 c 2.74958,0 5,-2.250421 5,-5 V 14.958984 c 0,-1.561957 -0.68848,-3.045753 -1.88086,-4.054687 L 18.79688,3.015625 C 17.99206,2.3346282 16.99643,1.9941406 16,1.9941406 Z m 0,1.9941406 c 0.5343,1e-7 1.06867,0.1847598 1.50586,0.5546876 l 9.32227,7.8867192 C 27.57237,13.059432 28,13.984061 28,14.958984 V 25 c 0,1.668699 -1.3313,3 -3,3 H 7 C 5.3313,28 4,26.668699 4,25 V 14.958984 C 4,13.984061 4.42763,13.059432 5.17188,12.429688 L 14.49414,4.5429688 C 14.93133,4.173041 15.4657,3.9882812 16,3.9882812 Z" color="#000" enable-background="accumulate" font-family="sans-serif" font-weight="400" overflow="visible" style="line-height:normal;font-variant-ligatures:normal;font-variant-position:normal;font-variant-caps:normal;font-variant-numeric:normal;font-variant-alternates:normal;font-variant-east-asian:normal;font-feature-settings:normal;font-variation-settings:normal;text-indent:0;text-align:start;text-decoration-line:none;text-decoration-style:solid;text-decoration-color:#000;text-transform:none;text-orientation:mixed;white-space:normal;shape-padding:0;shape-margin:0;inline-size:0;isolation:auto;mix-blend-mode:normal;solid-color:#000;solid-opacity:1"></path>
    <path fill="url(#c)" d="m 10,12 a 1.0001,1.0001 0 0 0 -1,1 v 4 a 1.0001,1.0001 0 0 0 1,1 h 4 a 1.0001,1.0001 0 0 0 1,-1 v -4 a 1.0001,1.0001 0 0 0 -1,-1 z m 1,2 h 2 v 2 h -2 z" color="#000" enable-background="accumulate" font-family="sans-serif" font-weight="400" overflow="visible" style="line-height:normal;font-variant-ligatures:normal;font-variant-position:normal;font-variant-caps:normal;font-variant-numeric:normal;font-variant-alternates:normal;font-variant-east-asian:normal;font-feature-settings:normal;font-variation-settings:normal;text-indent:0;text-align:start;text-decoration-line:none;text-decoration-style:solid;text-decoration-color:#000;text-transform:none;text-orientation:mixed;white-space:normal;shape-padding:0;shape-margin:0;inline-size:0;isolation:auto;mix-blend-mode:normal;solid-color:#000;solid-opacity:1"></path>
    <path fill="url(#d)" d="m 18,12 a 1.0001,1.0001 0 0 0 -1,1 v 4 a 1.0001,1.0001 0 0 0 1,1 h 4 a 1.0001,1.0001 0 0 0 1,-1 v -4 a 1.0001,1.0001 0 0 0 -1,-1 z m 1,2 h 2 v 2 h -2 z" color="#000" enable-background="accumulate" font-family="sans-serif" font-weight="400" overflow="visible" style="line-height:normal;font-variant-ligatures:normal;font-variant-position:normal;font-variant-caps:normal;font-variant-numeric:normal;font-variant-alternates:normal;font-variant-east-asian:normal;font-feature-settings:normal;font-variation-settings:normal;text-indent:0;text-align:start;text-decoration-line:none;text-decoration-style:solid;text-decoration-color:#000;text-transform:none;text-orientation:mixed;white-space:normal;shape-padding:0;shape-margin:0;inline-size:0;isolation:auto;mix-blend-mode:normal;solid-color:#000;solid-opacity:1"></path>
    <path fill="url(#e)" d="m 10,20 a 1.0001,1.0001 0 0 0 -1,1 v 4 a 1.0001,1.0001 0 0 0 1,1 h 4 a 1.0001,1.0001 0 0 0 1,-1 v -4 a 1.0001,1.0001 0 0 0 -1,-1 z m 1,2 h 2 v 2 h -2 z" color="#000" enable-background="accumulate" font-family="sans-serif" font-weight="400" overflow="visible" style="line-height:normal;font-variant-ligatures:normal;font-variant-position:normal;font-variant-caps:normal;font-variant-numeric:normal;font-variant-alternates:normal;font-variant-east-asian:normal;font-feature-settings:normal;font-variation-settings:normal;text-indent:0;text-align:start;text-decoration-line:none;text-decoration-style:solid;text-decoration-color:#000;text-transform:none;text-orientation:mixed;white-space:normal;shape-padding:0;shape-margin:0;inline-size:0;isolation:auto;mix-blend-mode:normal;solid-color:#000;solid-opacity:1"></path>
    <path fill="url(#f)" d="m 18,20 a 1.0001,1.0001 0 0 0 -1,1 v 4 a 1.0001,1.0001 0 0 0 1,1 h 4 a 1.0001,1.0001 0 0 0 1,-1 v -4 a 1.0001,1.0001 0 0 0 -1,-1 z m 1,2 h 2 v 2 h -2 z" color="#000" enable-background="accumulate" font-family="sans-serif" font-weight="400" overflow="visible" style="line-height:normal;font-variant-ligatures:normal;font-variant-position:normal;font-variant-caps:normal;font-variant-numeric:normal;font-variant-alternates:normal;font-variant-east-asian:normal;font-feature-settings:normal;font-variation-settings:normal;text-indent:0;text-align:start;text-decoration-line:none;text-decoration-style:solid;text-decoration-color:#000;text-transform:none;text-orientation:mixed;white-space:normal;shape-padding:0;shape-margin:0;inline-size:0;isolation:auto;mix-blend-mode:normal;solid-color:#000;solid-opacity:1"></path>
  </g>
</svg>
