<?xml version="1.0" encoding="iso-8859-1"?>
<!-- Uploaded to: SVG Repo, www.svgrepo.com, Generator: SVG Repo Mixer Tools -->
<svg height="800px" width="800px" version="1.1" id="Layer_1" xmlns="http://www.w3.org/2000/svg" xmlns:xlink="http://www.w3.org/1999/xlink" 
	 viewBox="0 0 512 512" xml:space="preserve">
<g>
	<path style="fill:#CA80DC;" d="M256,130.458c-10.345,0-18.732-8.387-18.732-18.732V18.732C237.268,8.387,245.655,0,256,0
		c10.345,0,18.732,8.387,18.732,18.732v92.994C274.732,122.071,266.345,130.458,256,130.458z"/>
	<path style="fill:#CA80DC;" d="M256,512c-10.345,0-18.732-8.387-18.732-18.732v-92.994c0-10.345,8.387-18.732,18.732-18.732
		c10.345,0,18.732,8.387,18.732,18.732v92.994C274.732,503.613,266.345,512,256,512z"/>
	<path style="fill:#CA80DC;" d="M121.689,200.085l-80.535-46.497c-8.959-5.172-12.028-16.629-6.856-25.589
		c5.172-8.959,16.629-12.03,25.588-6.857l80.535,46.497c8.959,5.172,12.028,16.629,6.856,25.589
		C142.105,202.188,130.649,205.258,121.689,200.085z"/>
	<path style="fill:#CA80DC;" d="M34.298,384c-5.172-8.959-2.103-20.415,6.856-25.589l80.535-46.497
		c8.959-5.172,20.416-2.103,25.588,6.856c5.172,8.959,2.103,20.415-6.856,25.588l-80.535,46.497
		C50.93,396.026,39.473,392.964,34.298,384z"/>
</g>
<g>
	<path style="fill:#B757D1;" d="M256.001,0v130.458c10.345-0.001,18.73-8.387,18.73-18.732V18.732
		C274.732,8.387,266.346,0.001,256.001,0z"/>
	<path style="fill:#B757D1;" d="M256.001,381.542V512c10.345-0.001,18.73-8.387,18.73-18.732v-92.994
		C274.732,389.93,266.346,381.544,256.001,381.542z"/>
	<path style="fill:#B757D1;" d="M452.115,390.857L371.58,344.36c-8.959-5.172-12.028-16.629-6.856-25.588
		c5.171-8.959,16.628-12.03,25.587-6.856l80.535,46.497c8.959,5.172,12.028,16.629,6.856,25.589
		C472.531,392.959,461.075,396.03,452.115,390.857z"/>
	<path style="fill:#B757D1;" d="M364.724,193.229c-5.172-8.959-2.103-20.415,6.856-25.589l80.535-46.497
		c8.959-5.172,20.416-2.103,25.587,6.857c5.172,8.959,2.103,20.415-6.856,25.589l-80.535,46.497
		C381.356,205.255,369.898,202.193,364.724,193.229z"/>
</g>
</svg>