<svg xmlns="http://www.w3.org/2000/svg" viewBox="0 0 32 32" id="notice-board">
  <defs>
    <linearGradient id="linear-gradient" x1="6.9" x2="24.97" y1="31.4" y2=".1" gradientUnits="userSpaceOnUse">
      <stop offset="0" stop-color="#3498db"></stop>
      <stop offset="1" stop-color="#8b47ae"></stop>
      <stop offset="1" stop-color="#8c46ae"></stop>
      <stop offset="1" stop-color="#8e44ad"></stop>
    </linearGradient>
  </defs>
  <g id="_06._Notice_board_icon">
    <path fill="url(#linear-gradient)" d="M29,24.5a.5.5,0,0,0,.5-.5V3a.5.5,0,0,0-.5-.5H3a.5.5,0,0,0-.5.5V24a.5.5,0,0,0,.5.5H6.5v2H4a1.5,1.5,0,0,0,0,3H28a1.5,1.5,0,0,0,0-3H25.5v-2ZM3.5,3.5h25v20H3.5ZM28.5,28a.5.5,0,0,1-.5.5H4a.5.5,0,0,1,0-1H28A.5.5,0,0,1,28.5,28Zm-4-1.5H7.5v-2h17Zm3-4.5V5a.5.5,0,0,0-.5-.5H5a.5.5,0,0,0-.5.5V22a.5.5,0,0,0,.5.5H27A.5.5,0,0,0,27.5,22Zm-1-.5H5.5V5.5h21ZM7,20.5h7a.5.5,0,0,0,.5-.5V14.21l1-1V19a.5.5,0,0,0,.5.5h2.5V20a.5.5,0,0,0,.5.5h6a.5.5,0,0,0,.5-.5V14a.5.5,0,0,0-.5-.5H19a.5.5,0,0,0-.5.5v4.5h-2V12.21l1-1V12a.5.5,0,0,0,.5.5h7a.5.5,0,0,0,.5-.5V7a.5.5,0,0,0-.5-.5H18a.5.5,0,0,0-.5.5V9.79l-1,1V9a.5.5,0,0,0-.5-.5H14.5V7a.5.5,0,0,0-.5-.5H7a.5.5,0,0,0-.5.5v5a.5.5,0,0,0,.5.5h7a.5.5,0,0,0,.5-.5V9.5h1v2.29L13.79,13.5H7a.5.5,0,0,0-.5.5v6A.5.5,0,0,0,7,20.5Zm12.5-6h5v5h-5Zm-1-7h6v4h-6Zm-5,4h-6v-4h6Zm-6,3h6v5h-6Zm5,1.5a.5.5,0,0,1-.5.5H9a.5.5,0,0,1,0-1h3A.5.5,0,0,1,12.5,16Zm0,2a.5.5,0,0,1-.5.5H9a.5.5,0,0,1,0-1h3A.5.5,0,0,1,12.5,18Zm8-2a.5.5,0,0,1,.5-.5h1a.5.5,0,0,1,0,1H21A.5.5,0,0,1,20.5,16ZM22,17.5h1a.5.5,0,0,1,0,1H22a.5.5,0,0,1,0-1Z"></path>
  </g>
</svg>
