<svg xmlns="http://www.w3.org/2000/svg" xmlns:xlink="http://www.w3.org/1999/xlink" width="24" height="24" viewBox="0 0 24 24" id="adjust">
  <defs>
    <linearGradient id="a">
      <stop offset="0" stop-color="#f0f"></stop>
      <stop offset="1" stop-color="#00f"></stop>
    </linearGradient>
    <linearGradient xlink:href="#a" id="d" x1="2" x2="22" y1="292.782" y2="312.782" gradientUnits="userSpaceOnUse"></linearGradient>
    <linearGradient xlink:href="#a" id="b" x1="2" x2="22" y1="292.782" y2="312.782" gradientUnits="userSpaceOnUse"></linearGradient>
    <linearGradient xlink:href="#a" id="c" x1="2" x2="22" y1="292.782" y2="312.782" gradientUnits="userSpaceOnUse"></linearGradient>
  </defs>
  <g transform="translate(0 -290.65)">
    <path fill="url(#b)" d="m 8,292.65 c -1.29316,0 -2.39514,0.84267 -2.8125,2 H 3 c -0.55228,0 -1,0.44772 -1,1 0,0.55228 0.44772,1 1,1 h 2.18555 c 0.41685,1.15826 1.52062,2 2.81445,2 1.29316,0 2.39514,-0.84267 2.8125,-2 H 21 c 0.55229,0 1,-0.44772 1,-1 0,-0.55228 -0.44771,-1 -1,-1 H 10.8125 c -0.41736,-1.15733 -1.51934,-2 -2.8125,-2 z m 0,2 c 0.56413,0 1,0.43587 1,1 0,0.56413 -0.43587,1 -1,1 -0.56413,0 -1,-0.43587 -1,-1 0,-0.56413 0.43587,-1 1,-1 z" color="#000" enable-background="accumulate" font-family="sans-serif" font-weight="400" overflow="visible" style="line-height:normal;font-variant-ligatures:normal;font-variant-position:normal;font-variant-caps:normal;font-variant-numeric:normal;font-variant-alternates:normal;font-variant-east-asian:normal;font-feature-settings:normal;font-variation-settings:normal;text-indent:0;text-align:start;text-decoration-line:none;text-decoration-style:solid;text-decoration-color:#000;text-transform:none;text-orientation:mixed;white-space:normal;shape-padding:0;shape-margin:0;inline-size:0;isolation:auto;mix-blend-mode:normal;solid-color:#000;solid-opacity:1"></path>
    <path fill="url(#c)" d="m 15,299.65 c -1.29316,0 -2.39514,0.84267 -2.8125,2 H 3 c -0.55228,0 -1,0.44771 -1,1 0,0.55229 0.44772,1 1,1 h 9.18555 c 0.41685,1.15826 1.52062,2 2.81445,2 1.29316,0 2.39514,-0.84267 2.8125,-2 H 21 c 0.55229,0 1,-0.44771 1,-1 0,-0.55229 -0.44771,-1 -1,-1 h -3.1875 c -0.41736,-1.15733 -1.51934,-2 -2.8125,-2 z m 0,2 c 0.56413,0 1,0.43587 1,1 0,0.56413 -0.43587,1 -1,1 -0.56413,0 -1,-0.43587 -1,-1 0,-0.56413 0.43587,-1 1,-1 z" color="#000" enable-background="accumulate" font-family="sans-serif" font-weight="400" overflow="visible" style="line-height:normal;font-variant-ligatures:normal;font-variant-position:normal;font-variant-caps:normal;font-variant-numeric:normal;font-variant-alternates:normal;font-variant-east-asian:normal;font-feature-settings:normal;font-variation-settings:normal;text-indent:0;text-align:start;text-decoration-line:none;text-decoration-style:solid;text-decoration-color:#000;text-transform:none;text-orientation:mixed;white-space:normal;shape-padding:0;shape-margin:0;inline-size:0;isolation:auto;mix-blend-mode:normal;solid-color:#000;solid-opacity:1"></path>
    <path fill="url(#d)" d="m 8,306.65 c -1.29316,0 -2.39514,0.84267 -2.8125,2 H 3 c -0.55228,0 -1,0.44771 -1,1 0,0.55229 0.44772,1 1,1 h 2.1875 c 0.41736,1.15733 1.51934,2 2.8125,2 1.29383,0 2.3976,-0.84174 2.81445,-2 H 21 c 0.55229,0 1,-0.44771 1,-1 0,-0.55229 -0.44771,-1 -1,-1 H 10.8125 c -0.41736,-1.15733 -1.51934,-2 -2.8125,-2 z m 0,2 c 0.56413,0 1,0.43587 1,1 0,0.56413 -0.43587,1 -1,1 -0.56413,0 -1,-0.43587 -1,-1 0,-0.56413 0.43587,-1 1,-1 z" color="#000" enable-background="accumulate" font-family="sans-serif" font-weight="400" overflow="visible" style="line-height:normal;font-variant-ligatures:normal;font-variant-position:normal;font-variant-caps:normal;font-variant-numeric:normal;font-variant-alternates:normal;font-variant-east-asian:normal;font-feature-settings:normal;font-variation-settings:normal;text-indent:0;text-align:start;text-decoration-line:none;text-decoration-style:solid;text-decoration-color:#000;text-transform:none;text-orientation:mixed;white-space:normal;shape-padding:0;shape-margin:0;inline-size:0;isolation:auto;mix-blend-mode:normal;solid-color:#000;solid-opacity:1"></path>
  </g>
</svg>
